Coordinates
version=1
nRows=17
nColumns=40
inDegrees=yes

Units are S.I. units (second, meters, Newtons, ...)
Angles are in degrees.

endheader
time	pelvis_tilt	pelvis_list	pelvis_rotation	pelvis_tx	pelvis_ty	pelvis_tz	hip_flexion_r	hip_adduction_r	hip_rotation_r	knee_angle_r	knee_angle_r_beta	ankle_angle_r	subtalar_angle_r	mtp_angle_r	hip_flexion_l	hip_adduction_l	hip_rotation_l	knee_angle_l	knee_angle_l_beta	ankle_angle_l	subtalar_angle_l	mtp_angle_l	lumbar_extension	lumbar_bending	lumbar_rotation	arm_flex_r	arm_add_r	arm_rot_r	elbow_flex_r	pro_sup_r	wrist_flex_r	wrist_dev_r	arm_flex_l	arm_add_l	arm_rot_l	elbow_flex_l	pro_sup_l	wrist_flex_l	wrist_dev_l
     12.32942857	     -2.16488839	     -4.45423025	      1.89347622	      0.95093579	      0.91125812	      0.52573225	     15.52277624	      5.93911440	     -6.99569077	     31.13034566	     31.13034566	     20.02091975	     -4.18360841	     -0.84991798	     33.27124189	    -14.45980363	      1.74887893	     62.15294525	     62.15294525	     15.53994125	    -19.49519134	     20.94257444	    -11.20210406	      6.39953095	      1.70299196	     21.42658158	    -14.41656046	    -10.62040011	     47.69491951	     45.42723099	      0.00000000	      0.00000000	      2.74480541	     -8.26172719	      1.66313602	     30.46947531	     45.77851765	      0.00000000	      0.00000000
     12.34885714	     -2.02453498	     -4.38107070	      2.25652686	      0.94962295	      0.91026392	      0.52600630	     15.29747811	      5.92478346	     -6.99184696	     31.59225985	     31.59225985	     20.48268281	     -4.69599279	     -0.75350757	     34.02699117	    -14.19311384	      1.82924111	     59.53421244	     59.53421244	     15.45642272	    -19.47944480	     21.07420401	    -11.28300426	      6.26431120	      1.77051534	     23.67806426	    -13.84963327	    -10.17809164	     49.39928108	     45.35929546	      0.00000000	      0.00000000	      0.41530074	     -7.59518695	      2.32098287	     28.98725388	     45.64608270	      0.00000000	      0.00000000
     12.36828571	     -1.93083070	     -4.28712923	      2.64800567	      0.94836876	      0.90973584	      0.52593201	     14.97323175	      5.85258852	     -7.07665756	     31.79661840	     31.79661840	     20.87097374	     -5.03001530	     -0.61981019	     34.56473309	    -13.72910793	      1.99427814	     56.52046992	     56.52046992	     14.99976703	    -19.43224016	     20.90776172	    -11.30775023	      6.11530212	      1.82884939	     25.86260545	    -13.34485415	     -9.63858960	     51.31303055	     45.28070877	      0.00000000	      0.00000000	     -1.85299955	     -7.00358769	      3.00205545	     27.76148640	     45.50469814	      0.00000000	      0.00000000
     12.38771429	     -1.96389071	     -4.15988234	      3.04491319	      0.94711934	      0.90966511	      0.52548161	     14.60358141	      5.70894175	     -7.23276607	     31.66495787	     31.66495787	     21.11956348	     -5.20126604	     -0.53610345	     34.98621309	    -13.06044335	      2.26744572	     53.24988316	     53.24988316	     14.38047154	    -19.32621133	     20.88575443	    -11.17049703	      5.90843747	      2.30201579	     27.89843045	    -13.25395414	     -9.36533042	     52.84730945	     45.22642216	      0.00000000	      0.00000000	     -3.87381264	     -6.39947681	      3.40887646	     26.97181540	     45.40545632	      0.00000000	      0.00000000
     12.40714286	     -1.90666589	     -4.01085226	      3.50947564	      0.94603261	      0.91029883	      0.52468300	     13.99400561	      5.50457220	     -7.49662105	     31.30913459	     31.30913459	     21.31713888	     -5.17784145	     -0.39064181	     35.01448228	    -12.25793474	      2.63299486	     49.70803357	     49.70803357	     13.34448431	    -19.19845777	     20.32517946	    -11.14720076	      5.73899807	      2.16770981	     29.97747210	    -12.69856305	     -8.78711054	     55.14002660	     45.13384758	      0.00000000	      0.00000000	     -6.03214908	     -6.03067310	      3.98945975	     26.22646313	     45.27072832	      0.00000000	      0.00000000
     12.42657143	     -2.02042804	     -3.97996997	      3.96867804	      0.94499250	      0.91093408	      0.52366587	     13.47972291	      5.34901322	     -8.01275181	     30.79848122	     30.79848122	     21.52622018	     -4.73345302	     -0.12837768	     34.99448572	    -11.58483433	      2.98355572	     45.98580499	     45.98580499	     11.01084701	    -18.95967420	     16.18347005	    -10.98326372	      5.68835621	      2.32821773	     31.24913898	    -13.17754695	     -6.65656527	     59.51686288	     44.92443868	      0.00000000	      0.00000000	     -8.45555820	     -6.01517946	      6.09163977	     27.05715366	     44.86002999	      0.00000000	      0.00000000
     12.44600000	     -2.05591744	     -3.80591245	      4.39735170	      0.94409229	      0.91240120	      0.52237728	     12.65337720	      5.13827731	     -8.23360050	     29.87250579	     29.87250579	     21.48352762	     -4.63919423	      0.06810153	     34.72191818	    -10.63931823	      3.55139474	     42.49705161	     42.49705161	     10.19088083	    -18.48521353	     16.23319799	    -10.81159683	      5.42929876	      2.73586832	     33.23745352	    -13.18330004	     -6.59113621	     60.94786126	     44.88740383	      0.00000000	      0.00000000	    -10.04883075	     -5.78761897	      6.58877897	     26.74872025	     44.75305107	      0.00000000	      0.00000000
     12.46542857	     -2.11926375	     -3.73750608	      4.84832623	      0.94338992	      0.91384429	      0.52094325	     11.77235173	      4.97672922	     -8.73010251	     28.80809228	     28.80809228	     21.36054616	     -4.12895264	     -0.12491976	     34.22921404	     -9.94980933	      3.90407007	     38.86928476	     38.86928476	      7.89181714	    -17.88225951	     11.79760029	    -10.70976656	      5.29602920	      3.09297865	     34.54345917	    -13.73074038	     -5.52429227	     64.78611924	     44.77259323	      0.00000000	      0.00000000	    -12.29774354	     -6.32186024	      9.86435647	     28.77874329	     44.20092739	      0.00000000	      0.00000000
     12.48485714	     -2.29956821	     -3.62670404	      5.27904738	      0.94273522	      0.91535358	      0.51937488	     10.93380216	      4.83772548	     -9.00336229	     27.59149366	     27.59149366	     21.23875502	     -3.89790212	      0.09909802	     33.92757152	     -9.20406923	      4.31969685	     35.89648360	     35.89648360	      7.56435143	    -16.60734515	     12.05568356	    -10.34842375	      5.06248570	      3.30704158	     36.49580594	    -13.65040809	     -5.57564249	     66.03282124	     44.74639343	      0.00000000	      0.00000000	    -13.59311988	     -6.23159900	     10.26654745	     28.50222488	     44.12620616	      0.00000000	      0.00000000
     12.50428571	     -2.32208724	     -3.59408810	      5.72924680	      0.94235858	      0.91701458	      0.51760061	      9.80183499	      4.76730889	     -9.48651395	     26.17054074	     26.17054074	     21.10821728	     -3.35245026	      0.20297162	     33.36895702	     -8.63593972	      4.61413882	     33.22283648	     33.22283648	      7.28307870	    -15.15664263	     11.73448053	    -10.21636306	      4.95241969	      3.21934442	     38.42317475	    -13.48051530	     -5.40461419	     68.04132037	     44.69130811	      0.00000000	      0.00000000	    -15.00045114	     -6.27001093	     10.91051387	     28.76542068	     44.01524833	      0.00000000	      0.00000000
     12.52371429	     -2.45733218	     -3.53589467	      6.14601988	      0.94206927	      0.91815517	      0.51582301	      8.88232170	      4.68810139	     -9.83669061	     24.90891347	     24.90891347	     20.68641480	     -3.13060898	     -0.72120070	     32.73495061	     -8.15365243	      4.63149383	     30.58572221	     30.58572221	      5.99720369	    -13.99537280	      8.63136882	     -9.97629057	      4.78223660	      3.75178087	     39.49993617	    -14.13597814	     -4.99167430	     71.22369846	     44.69897464	      0.00000000	      0.00000000	    -16.58336555	     -7.66664248	     16.39791490	     31.59273698	     43.40539435	      0.00000000	      0.00000000
     12.54314286	     -2.59041802	     -3.53712153	      6.53511748	      0.94194677	      0.91917813	      0.51382263	      7.88097783	      4.69752206	    -10.11993784	     23.52781585	     23.52781585	     20.57629739	     -2.75632748	     -0.46509874	     32.23184363	     -7.72041088	      4.73363695	     28.70858971	     28.70858971	      6.14980736	    -12.73003711	      8.78936433	     -9.67056549	      4.63226005	      3.81418101	     41.25058407	    -14.18398643	     -5.01452137	     72.48394157	     44.67401739	      0.00000000	      0.00000000	    -17.39436784	     -7.67859567	     16.60576009	     31.59974690	     43.38835077	      0.00000000	      0.00000000
     12.56257143	     -2.69616198	     -3.59092073	      6.94165677	      0.94191133	      0.91976932	      0.51173116	      6.94100033	      4.74882547	    -10.46038596	     22.32848134	     22.32848134	     20.54293640	     -2.35314383	     -0.39250031	     31.70588477	     -7.41951716	      4.66564981	     27.19544355	     27.19544355	      6.23488487	    -11.54293818	      8.58134273	     -9.43338728	      4.56294486	      3.82810381	     42.75290279	    -14.26630666	     -4.88377931	     74.26963294	     44.63256465	      0.00000000	      0.00000000	    -18.11036237	     -7.83058287	     16.86949829	     32.07976693	     43.38158555	      0.00000000	      0.00000000
     12.58200000	     -2.83516637	     -3.56113590	      7.31470361	      0.94200513	      0.92000157	      0.50944064	      6.15160528	      4.70339473	    -10.66960080	     21.38639456	     21.38639456	     20.58553623	     -2.20918560	     -0.30582219	     31.11179482	     -7.05447875	      4.50553700	     25.89405303	     25.89405303	      6.30398844	    -10.72775708	      8.43838119	     -9.14600282	      4.38936365	      3.86028106	     44.16218943	    -14.36284334	     -4.89125434	     75.47781850	     44.60678291	      0.00000000	      0.00000000	    -18.51251311	     -7.96740840	     16.99136891	     32.27607856	     43.37882692	      0.00000000	      0.00000000
     12.60142857	     -2.91129497	     -3.63750926	      7.71758592	      0.94219308	      0.91987292	      0.50706350	      5.32346306	      4.77357675	    -10.94334854	     20.47573405	     20.47573405	     20.62172806	     -1.99566327	     -0.35401075	     30.56948251	     -6.85452163	      4.29623965	     25.03149335	     25.03149335	      6.20871335	    -10.00241891	      7.65594689	     -8.96314581	      4.29664490	      3.83227694	     45.31595564	    -14.50380904	     -4.90318361	     77.20687615	     44.57130160	      0.00000000	      0.00000000	    -18.80163531	     -8.16659115	     17.18163485	     32.72352412	     43.38807203	      0.00000000	      0.00000000
     12.62085714	     -3.03930555	     -3.73446183	      8.10257971	      0.94243529	      0.91932167	      0.50454638	      4.69230528	      4.83784353	    -11.16678134	     19.84038132	     19.84038132	     20.69697889	     -1.95112289	     -0.60955987	     30.07814110	     -6.69907832	      4.07117740	     24.32923606	     24.32923606	      5.67706729	     -9.52351138	      5.90599865	     -8.76369071	      4.25089904	      4.03633884	     46.08877869	    -14.84885250	     -5.17839368	     79.21164448	     44.55213031	      0.00000000	      0.00000000	    -18.75677865	     -8.42288053	     17.53055145	     33.15999259	     43.42399878	      0.00000000	      0.00000000
     12.64028571	     -3.14476072	     -3.73750284	      8.46344012	      0.94262858	      0.91866866	      0.50178464	      4.18721689	      4.76894282	    -11.32643349	     19.52030696	     19.52030696	     20.89842528	     -2.05997857	     -0.63488747	     29.63160745	     -6.44172862	      3.89200857	     23.97228121	     23.97228121	      5.58789219	     -9.26375639	      5.52539586	     -8.57031720	      4.08627640	      3.94948808	     47.07143658	    -14.89951927	     -5.36520382	     79.88764842	     44.54865732	      0.00000000	      0.00000000	    -18.48210746	     -8.53935990	     17.60413056	     33.12979677	     43.43866848	      0.00000000	      0.00000000
